Coordinates
version=1
nRows=14
nColumns=24
inDegrees=yes

Units are S.I. units (second, meters, Newtons, ...)
Angles are in degrees.

endheader
time	pelvis_tilt	pelvis_list	pelvis_rotation	pelvis_tx	pelvis_ty	pelvis_tz	hip_flexion_r	hip_adduction_r	hip_rotation_r	knee_angle_r	ankle_angle_r	subtalar_angle_r	mtp_angle_r	hip_flexion_l	hip_adduction_l	hip_rotation_l	knee_angle_l	ankle_angle_l	subtalar_angle_l	mtp_angle_l	lumbar_extension	lumbar_bending	lumbar_rotation
      2.04000000	     12.54456306	      5.35744779	     -3.79986763	      0.50386129	      0.94114503	      0.27126015	      5.32625397	     -7.91400913	     -0.22158019	    -65.25480711	     17.27848719	      4.65480650	     49.90223580	     -2.45205819	     10.88764201	     -5.19312963	    -20.07312508	     21.78693892	      4.85857995	     15.20466186	    -26.91142911	     -6.20797661	      6.28357731
      2.04500000	     12.80365842	      5.32904035	     -3.64608643	      0.51032691	      0.94221434	      0.27112043	      5.64107872	     -7.92879409	     -0.43924736	    -64.71282889	     17.85227891	      4.90569065	     49.38222279	     -3.48666277	     10.85260331	     -5.18014677	    -19.53840001	     22.02919096	      5.33107692	     14.93592224	    -27.18159745	     -6.06837325	      6.03290972
      2.05000000	     12.89991740	      5.28811576	     -3.53491488	      0.51661376	      0.94294385	      0.27121339	      6.18542223	     -7.86329669	     -0.50464352	    -64.15265636	     18.11389208	      5.09421090	     49.09119374	     -4.27660940	     10.76499268	     -5.32191004	    -19.07801543	     22.21715758	      5.95486600	     14.81149739	    -27.28291221	     -5.95230758	      5.85485845
      2.05500000	     13.01002130	      5.25252427	     -3.49639781	      0.52267598	      0.94357497	      0.27151885	      6.71785808	     -7.78410786	     -0.52382899	    -63.52906747	     18.60472842	      4.89516815	     48.05189304	     -5.08543961	     10.67330228	     -5.50694737	    -18.58411282	     22.52332341	      6.57271995	     14.13450918	    -27.41125434	     -5.87620859	      5.74505138
      2.06000000	     13.01080103	      5.28951249	     -3.36801897	      0.52876154	      0.94402217	      0.27158871	      7.33806597	     -7.83642095	     -0.66715828	    -62.84877865	     18.95089746	      4.82232210	     48.01434333	     -5.74251394	     10.63839933	     -5.52577994	    -18.16987883	     22.69716441	      7.26700117	     14.09927157	    -27.42484262	     -5.82028660	      5.49959418
      2.06500000	     13.21572584	      5.18590991	     -3.24345131	      0.53502011	      0.94481895	      0.27166529	      7.61781461	     -7.72801066	     -0.82730152	    -61.96100487	     19.25699535	      4.73071222	     47.87728056	     -6.68167006	     10.47273648	     -5.55774235	    -17.67697817	     22.90280558	      7.94589359	     13.91480442	    -27.65610139	     -5.63774889	      5.36239758
      2.07000000	     13.37582720	      5.16537067	     -3.15489324	      0.54130625	      0.94536321	      0.27174175	      8.00153364	     -7.72426183	     -0.96536951	    -61.15751537	     19.64027848	      4.74736044	     47.71769686	     -7.58098680	     10.41725617	     -5.57122990	    -17.14669984	     23.08709933	      8.45983632	     13.72625028	    -27.82438343	     -5.54381868	      5.21722888
      2.07500000	     13.58531785	      5.14464543	     -2.99112624	      0.54760925	      0.94593237	      0.27168244	      8.24367646	     -7.73050532	     -1.15666227	    -60.21043125	     20.03939921	      4.79699623	     47.59098671	     -8.51351874	     10.35325202	     -5.49728929	    -16.66724241	     23.28452074	      8.97230648	     13.57365951	    -28.03823446	     -5.40824590	      4.95499933
      2.08000000	     13.82759917	      5.11633480	     -2.87287917	      0.55379182	      0.94645855	      0.27164568	      8.44628661	     -7.73906976	     -1.35594134	    -59.17195727	     20.54549689	      4.92985571	     47.18315567	     -9.54031050	     10.31596130	     -5.30703002	    -16.04822316	     23.41197949	      9.19000513	     13.23574290	    -28.30519308	     -5.29220748	      4.80838534
      2.08500000	     13.98799736	      5.16119580	     -2.75966919	      0.56003998	      0.94682237	      0.27158208	      8.74729778	     -7.81139495	     -1.51129588	    -58.16965281	     20.84713231	      4.96903118	     46.43479367	    -10.48827055	     10.36939653	     -5.07359595	    -15.39753280	     23.53828997	      9.41568926	     12.58161428	    -28.48163918	     -5.23799454	      4.58534011
      2.09000000	     14.03290322	      5.18542435	     -2.57292167	      0.56626140	      0.94687674	      0.27152123	      9.17671246	     -7.87502264	     -1.73811085	    -57.18251063	     20.93991067	      5.00460569	     46.44465495	    -11.21795628	     10.36628190	     -4.75617493	    -14.97353569	     23.71204070	      9.55800354	     12.49651573	    -28.53544183	     -5.14855582	      4.35715527
      2.09500000	     14.16667481	      5.20069080	     -2.52024272	      0.57238496	      0.94699321	      0.27158265	      9.50684754	     -7.93718089	     -1.84816947	    -56.09688866	     21.20068069	      5.33109794	     46.33283578	    -12.09697127	     10.40043965	     -4.45885448	    -14.41336910	     23.76113345	      9.53624347	     12.37334061	    -28.68007890	     -5.09623298	      4.22972899
      2.10000000	     14.32438603	      5.20799864	     -2.40412778	      0.57842978	      0.94712603	      0.27159756	      9.71348868	     -7.96680259	     -1.97678612	    -54.82716266	     21.42791394	      5.63389509	     46.08853788	    -12.97890143	     10.40366569	     -4.20640083	    -13.85169019	     23.85377454	      9.58423225	     12.17713623	    -28.86473532	     -5.01354120	      4.05422420
      2.10500000	     14.49302581	      5.20419729	     -2.33773390	      0.58461494	      0.94717862	      0.27179534	      9.89636244	     -7.95568866	     -2.04535747	    -53.56950771	     21.84586811	      5.95552403	     44.25267713	    -13.87481169	     10.39155998	     -4.07489502	    -13.29468175	     23.87047385	      9.73866189	     11.34199455	    -29.04986373	     -4.96717572	      3.90971134
